<svg width="203" height="59" viewBox="0 0 203 59" fill="none" xmlns="http://www.w3.org/2000/svg">
<path d="M49.173 5.0842H45.6275V1.76094C45.6233 1.39323 45.4768 1.03869 45.214 0.759887C44.9512 0.481087 44.5889 0.295942 44.1911 0.237125C41.6231 -0.0435128 39.0235 0.0283629 36.4788 0.450357C31.8731 1.21486 28.1965 3.09752 25.7056 5.95272C23.2146 3.09752 19.538 1.21486 14.9323 0.450357C12.3896 0.0282598 9.79184 -0.0436175 7.22574 0.237125C6.82789 0.295942 6.46559 0.481087 6.20278 0.759887C5.93996 1.03869 5.79353 1.39323 5.78931 1.76094V5.0842H2.30654C1.85796 5.09102 1.43029 5.25841 1.11574 5.55027C0.801181 5.84213 0.624938 6.23509 0.625 6.64442V35.6384C0.630519 35.882 0.698496 36.1211 0.823486 36.3364C0.948476 36.5517 1.127 36.7374 1.34477 36.8784C1.56253 37.0195 1.81347 37.112 2.07749 37.1487C2.34151 37.1853 2.61127 37.165 2.86515 37.0894C2.99055 37.0478 15.6277 33.1161 25.05 37.0374C25.2705 37.1278 25.5095 37.1746 25.7512 37.1746C25.9929 37.1746 26.2318 37.1278 26.4523 37.0374C35.8518 33.1265 48.5118 37.0374 48.6372 37.0894C48.8206 37.1464 49.0134 37.1746 49.2072 37.1726C49.6558 37.1727 50.0865 37.0119 50.4064 36.7249C50.7263 36.4379 50.9097 36.0477 50.9172 35.6384V6.62362C50.9143 6.41783 50.8667 6.21461 50.7773 6.02566C50.6879 5.83672 50.5584 5.66578 50.3963 5.52269C50.2341 5.37961 50.0426 5.26719 49.8326 5.19194C49.6227 5.11668 49.3985 5.08007 49.173 5.0842ZM3.97097 33.5581V8.16303H5.81211V28.6539C5.8118 28.8737 5.86242 29.0912 5.96065 29.2919C6.05888 29.4927 6.20252 29.6723 6.38213 29.8188C6.56652 29.9626 6.78235 30.069 7.01527 30.1309C7.24819 30.1928 7.49286 30.2087 7.73305 30.1777C7.82426 30.1777 15.1432 29.2467 20.5013 32.596C13.9234 31.5715 7.32265 32.7572 3.97097 33.5581ZM24.0411 31.2074C21.4706 29.165 18.3218 27.8241 14.9551 27.3381C13.4029 27.0863 11.8291 26.961 10.2525 26.9636C9.86491 26.9636 9.50579 26.9636 9.18089 26.9636V3.14433C12.4243 3.01432 20.3075 3.32635 24.0411 9.10435V31.2074ZM27.4156 9.11476C31.1378 3.36276 39.0325 3.03512 42.2758 3.15994V26.974C40.3427 26.8979 38.4062 27.0165 36.5016 27.3277C33.1352 27.8147 29.9868 29.1555 27.4156 31.197V9.11476ZM30.9383 32.5856C36.2907 29.2311 43.6211 30.1517 43.7123 30.1621C43.9525 30.1955 44.1978 30.1808 44.4312 30.1188C44.6645 30.0568 44.8802 29.9491 45.0632 29.8032C45.2428 29.6567 45.3864 29.4771 45.4847 29.2763C45.5829 29.0756 45.6335 28.8581 45.6332 28.6383V8.14742H47.4686V33.5581C44.1341 32.7572 37.5333 31.5663 30.9383 32.6012V32.5856Z" fill="#FFAE1C"/>
<path d="M199.348 37.1573H49.5148C48.969 37.1573 48.4456 36.9594 48.0597 36.6074C47.6738 36.2553 47.457 35.7777 47.457 35.2798C47.457 34.7819 47.6738 34.3043 48.0597 33.9522C48.4456 33.6001 48.969 33.4023 49.5148 33.4023H199.348C199.894 33.4023 200.417 33.6001 200.803 33.9522C201.189 34.3043 201.406 34.7819 201.406 35.2798C201.406 35.7777 201.189 36.2553 200.803 36.6074C200.417 36.9594 199.894 37.1573 199.348 37.1573Z" fill="#FFAE1C"/>
<path d="M72.1522 3.22087C74.0327 3.22087 75.6239 3.54118 76.9258 4.1818C78.2277 4.80175 79.2197 5.69035 79.9016 6.8476C80.5835 7.98418 80.9245 9.33774 80.9245 10.9083C80.9245 11.8382 80.7799 12.7785 80.4906 13.7291C80.2219 14.659 79.7776 15.5063 79.1577 16.2709C78.5584 17.0355 77.7421 17.6555 76.7088 18.1307C75.6962 18.5854 74.446 18.8127 72.9581 18.8127H69.7344V26.0352H65.2397V3.22087H72.1522ZM72.9271 14.442C73.6091 14.442 74.1774 14.3284 74.632 14.1011C75.0866 13.8531 75.4379 13.5534 75.6859 13.2021C75.9546 12.8301 76.1405 12.4478 76.2439 12.0552C76.3679 11.6626 76.4299 11.3216 76.4299 11.0323C76.4299 10.805 76.3885 10.5053 76.3059 10.1333C76.2439 9.74071 76.0992 9.34808 75.8719 8.95544C75.6446 8.5628 75.2933 8.23216 74.818 7.96351C74.3633 7.69487 73.7434 7.56054 72.9581 7.56054H69.7344V14.442H72.9271ZM88.139 12.4892L88.542 16.2089L88.449 15.6509C88.8416 14.845 89.3789 14.163 90.0608 13.6051C90.7428 13.0265 91.4144 12.5822 92.0757 12.2722C92.7576 11.9622 93.2743 11.8072 93.6256 11.8072L93.4086 16.1469C92.396 16.0229 91.5281 16.1882 90.8048 16.6429C90.0815 17.0975 89.5236 17.6968 89.1309 18.4407C88.7383 19.1847 88.542 19.9493 88.542 20.7346V26.0352H84.2333V12.4892H88.139ZM102.197 26.4071C100.936 26.4071 99.7892 26.1591 98.7559 25.6632C97.7433 25.1466 96.9374 24.3613 96.3381 23.3074C95.7388 22.2534 95.4392 20.9102 95.4392 19.2777C95.4392 17.7484 95.7492 16.4259 96.3691 15.31C96.9891 14.194 97.8053 13.3364 98.8179 12.7372C99.8305 12.1172 100.905 11.8072 102.042 11.8072C103.385 11.8072 104.398 12.0345 105.079 12.4892C105.782 12.9231 106.361 13.4088 106.815 13.9461L106.629 14.473L107.032 12.4892H111.062V26.0352H106.722V23.0904L107.063 24.0203C107.022 24.0203 106.898 24.1443 106.691 24.3923C106.485 24.6196 106.175 24.8986 105.761 25.2292C105.369 25.5392 104.873 25.8078 104.274 26.0352C103.695 26.2831 103.003 26.4071 102.197 26.4071ZM103.437 22.8734C103.953 22.8734 104.418 22.8011 104.831 22.6564C105.245 22.4911 105.606 22.2638 105.916 21.9745C106.226 21.6645 106.495 21.2822 106.722 20.8275V17.5108C106.557 17.0562 106.309 16.6739 105.978 16.3639C105.648 16.0332 105.255 15.7853 104.8 15.6199C104.346 15.434 103.84 15.341 103.282 15.341C102.662 15.341 102.083 15.5063 101.546 15.8369C101.029 16.1469 100.616 16.5809 100.306 17.1388C99.9958 17.6968 99.8409 18.3374 99.8409 19.0607C99.8409 19.784 100.006 20.4349 100.337 21.0135C100.667 21.5922 101.101 22.0468 101.639 22.3774C102.197 22.7081 102.796 22.8734 103.437 22.8734ZM127.034 24.8262C126.435 25.3015 125.68 25.6838 124.771 25.9732C123.882 26.2625 123.004 26.4071 122.136 26.4071C120.586 26.4071 119.233 26.1281 118.075 25.5702C116.939 24.9916 116.05 24.1753 115.41 23.1214C114.79 22.0468 114.48 20.7552 114.48 19.2467C114.48 17.7381 114.821 16.4569 115.503 15.403C116.185 14.3284 117.073 13.5121 118.168 12.9541C119.284 12.3962 120.452 12.1172 121.671 12.1172C122.89 12.1172 123.944 12.2825 124.833 12.6132C125.742 12.9438 126.517 13.3778 127.158 13.9151L125.05 16.7049C124.761 16.4775 124.358 16.2502 123.841 16.0229C123.345 15.7749 122.756 15.6509 122.074 15.6509C121.475 15.6509 120.927 15.8059 120.431 16.1159C119.935 16.4259 119.543 16.8495 119.253 17.3868C118.964 17.9241 118.819 18.5441 118.819 19.2467C118.819 19.9079 118.974 20.5176 119.284 21.0755C119.594 21.6335 120.018 22.0778 120.555 22.4084C121.113 22.7184 121.764 22.8734 122.508 22.8734C122.983 22.8734 123.417 22.8114 123.81 22.6874C124.223 22.5428 124.575 22.3464 124.864 22.0985L127.034 24.8262ZM131.637 6.53762H135.977V12.4272H139.263V15.8059H135.977V26.0352H131.637V15.8059H129.53V12.4272H131.637V6.53762ZM142.566 12.4892H146.905V26.0352H142.566V12.4892ZM142.473 7.68453C142.473 7.04391 142.721 6.51695 143.217 6.10365C143.733 5.69035 144.281 5.4837 144.86 5.4837C145.438 5.4837 145.965 5.69035 146.441 6.10365C146.936 6.51695 147.184 7.04391 147.184 7.68453C147.184 8.32515 146.936 8.85211 146.441 9.26541C145.965 9.65805 145.438 9.85437 144.86 9.85437C144.281 9.85437 143.733 9.65805 143.217 9.26541C142.721 8.85211 142.473 8.32515 142.473 7.68453ZM162.875 24.8262C162.276 25.3015 161.521 25.6838 160.612 25.9732C159.723 26.2625 158.845 26.4071 157.977 26.4071C156.427 26.4071 155.074 26.1281 153.917 25.5702C152.78 24.9916 151.891 24.1753 151.251 23.1214C150.631 22.0468 150.321 20.7552 150.321 19.2467C150.321 17.7381 150.662 16.4569 151.344 15.403C152.026 14.3284 152.914 13.5121 154.01 12.9541C155.125 12.3962 156.293 12.1172 157.512 12.1172C158.732 12.1172 159.785 12.2825 160.674 12.6132C161.583 12.9438 162.358 13.3778 162.999 13.9151L160.891 16.7049C160.602 16.4775 160.199 16.2502 159.682 16.0229C159.186 15.7749 158.597 15.6509 157.915 15.6509C157.316 15.6509 156.768 15.8059 156.272 16.1159C155.776 16.4259 155.384 16.8495 155.094 17.3868C154.805 17.9241 154.66 18.5441 154.66 19.2467C154.66 19.9079 154.815 20.5176 155.125 21.0755C155.435 21.6335 155.859 22.0778 156.396 22.4084C156.954 22.7184 157.605 22.8734 158.349 22.8734C158.825 22.8734 159.258 22.8114 159.651 22.6874C160.064 22.5428 160.416 22.3464 160.705 22.0985L162.875 24.8262ZM172.872 26.4071C171.219 26.4071 169.814 26.0972 168.656 25.4772C167.52 24.8572 166.652 23.9996 166.053 22.9044C165.453 21.8091 165.154 20.5486 165.154 19.1227C165.154 17.7588 165.505 16.5292 166.208 15.434C166.91 14.3387 167.85 13.4708 169.028 12.8301C170.206 12.1689 171.519 11.8382 172.965 11.8382C174.908 11.8382 176.499 12.4065 177.739 13.5431C178.999 14.659 179.816 16.2812 180.188 18.4097L169.648 21.7575L168.687 19.4017L176.313 16.8288L175.414 17.2318C175.249 16.6945 174.949 16.2296 174.515 15.8369C174.102 15.4236 173.471 15.217 172.624 15.217C171.984 15.217 171.415 15.372 170.919 15.6819C170.444 15.9712 170.072 16.3949 169.803 16.9528C169.555 17.4901 169.431 18.1307 169.431 18.8747C169.431 19.722 169.586 20.4349 169.896 21.0135C170.206 21.5715 170.63 21.9951 171.167 22.2844C171.705 22.5737 172.304 22.7184 172.965 22.7184C173.44 22.7184 173.895 22.6357 174.329 22.4704C174.784 22.3051 175.228 22.0881 175.662 21.8195L177.584 25.0432C176.86 25.4565 176.075 25.7872 175.228 26.0352C174.401 26.2831 173.616 26.4071 172.872 26.4071Z" fill="#2461E6"/>
<path d="M126.697 45.7368H133.325V47.6077H130.933V55.5723H128.996V47.6077H126.697V45.7368ZM138.798 50.6679C138.798 49.9908 138.927 49.3494 139.186 48.7435C139.444 48.1377 139.801 47.6032 140.255 47.1399C140.718 46.6678 141.253 46.298 141.859 46.0308C142.464 45.7635 143.115 45.6299 143.81 45.6299C144.496 45.6299 145.141 45.7635 145.747 46.0308C146.353 46.298 146.888 46.6678 147.351 47.1399C147.823 47.6032 148.188 48.1377 148.447 48.7435C148.714 49.3494 148.848 49.9908 148.848 50.6679C148.848 51.3628 148.714 52.0131 148.447 52.6189C148.188 53.2248 147.823 53.7593 147.351 54.2226C146.888 54.6769 146.353 55.0333 145.747 55.2916C145.141 55.55 144.496 55.6792 143.81 55.6792C143.115 55.6792 142.464 55.55 141.859 55.2916C141.253 55.0333 140.718 54.6769 140.255 54.2226C139.801 53.7593 139.444 53.2248 139.186 52.6189C138.927 52.0131 138.798 51.3628 138.798 50.6679ZM140.803 50.6679C140.803 51.1044 140.879 51.5142 141.03 51.8973C141.19 52.2715 141.409 52.6056 141.685 52.8996C141.97 53.1847 142.295 53.4074 142.66 53.5677C143.034 53.7281 143.44 53.8083 143.876 53.8083C144.295 53.8083 144.683 53.7281 145.039 53.5677C145.404 53.4074 145.721 53.1847 145.988 52.8996C146.255 52.6056 146.464 52.2715 146.616 51.8973C146.767 51.5142 146.843 51.1044 146.843 50.6679C146.843 50.2224 146.763 49.8082 146.603 49.4251C146.451 49.042 146.237 48.7079 145.961 48.4228C145.694 48.1288 145.378 47.9016 145.012 47.7413C144.647 47.5809 144.251 47.5007 143.823 47.5007C143.395 47.5007 142.999 47.5809 142.634 47.7413C142.268 47.9016 141.948 48.1288 141.671 48.4228C141.395 48.7079 141.181 49.042 141.03 49.4251C140.879 49.8082 140.803 50.2224 140.803 50.6679ZM154.722 50.6679C154.722 49.9908 154.851 49.3494 155.109 48.7435C155.368 48.1377 155.724 47.6032 156.178 47.1399C156.642 46.6678 157.176 46.298 157.782 46.0308C158.388 45.7635 159.038 45.6299 159.733 45.6299C160.419 45.6299 161.065 45.7635 161.671 46.0308C162.276 46.298 162.811 46.6678 163.274 47.1399C163.746 47.6032 164.112 48.1377 164.37 48.7435C164.637 49.3494 164.771 49.9908 164.771 50.6679C164.771 51.3628 164.637 52.0131 164.37 52.6189C164.112 53.2248 163.746 53.7593 163.274 54.2226C162.811 54.6769 162.276 55.0333 161.671 55.2916C161.065 55.55 160.419 55.6792 159.733 55.6792C159.038 55.6792 158.388 55.55 157.782 55.2916C157.176 55.0333 156.642 54.6769 156.178 54.2226C155.724 53.7593 155.368 53.2248 155.109 52.6189C154.851 52.0131 154.722 51.3628 154.722 50.6679ZM156.726 50.6679C156.726 51.1044 156.802 51.5142 156.953 51.8973C157.114 52.2715 157.332 52.6056 157.608 52.8996C157.893 53.1847 158.218 53.4074 158.584 53.5677C158.958 53.7281 159.363 53.8083 159.8 53.8083C160.218 53.8083 160.606 53.7281 160.962 53.5677C161.328 53.4074 161.644 53.1847 161.911 52.8996C162.178 52.6056 162.388 52.2715 162.539 51.8973C162.691 51.5142 162.766 51.1044 162.766 50.6679C162.766 50.2224 162.686 49.8082 162.526 49.4251C162.374 49.042 162.161 48.7079 161.884 48.4228C161.617 48.1288 161.301 47.9016 160.936 47.7413C160.57 47.5809 160.174 47.5007 159.746 47.5007C159.319 47.5007 158.922 47.5809 158.557 47.7413C158.192 47.9016 157.871 48.1288 157.595 48.4228C157.319 48.7079 157.105 49.042 156.953 49.4251C156.802 49.8082 156.726 50.2224 156.726 50.6679ZM171.246 45.7368H173.184V53.7014H177.808V55.5723H171.246V45.7368ZM183.242 55.5723L187.678 45.3492H187.785L192.222 55.5723H189.977L187.144 48.3827L188.547 47.4206L185.153 55.5723H183.242ZM186.275 52.0176H189.229L189.91 53.6479H185.674L186.275 52.0176ZM198.199 45.7368H200.137V55.5723H198.199V45.7368Z" fill="#2461E6"/>
</svg>
